 <!--?xml version="1.0" standalone="no"?-->
              <svg id="sw-js-blob-svg" viewBox="0 0 100 100" xmlns="http://www.w3.org/2000/svg" version="1.1">
                    <defs> 
                        <linearGradient id="sw-gradient" x1="0" x2="1" y1="1" y2="0">
                            <stop id="stop1" stop-color="rgba(0, 0, 0, 0.08)" offset="0%"></stop>
                            <stop id="stop2" stop-color="rgba(244.826, 244.826, 244.826, 0.67)" offset="100%"></stop>
                        </linearGradient>
                    </defs>
                <path fill="url(#sw-gradient)" d="M23.3,-33.2C28.7,-28.2,30.5,-19.3,31.6,-11.3C32.7,-3.4,33.1,3.8,32.1,11.6C31.2,19.4,28.9,28,23.3,32.6C17.7,37.1,8.9,37.7,0.6,36.9C-7.7,36.1,-15.4,34,-21.1,29.5C-26.8,24.9,-30.5,18,-32,11C-33.5,3.9,-32.7,-3.2,-31.7,-11.5C-30.7,-19.7,-29.3,-29.1,-23.9,-34.1C-18.6,-39,-9.3,-39.7,-0.2,-39.5C9,-39.2,17.9,-38.1,23.3,-33.2Z" width="100%" height="100%" transform="translate(50 50)" stroke-width="0" style="transition: 0.3s;" stroke="url(#sw-gradient)"></path>
              </svg>