<svg width="130" height="130" viewBox="0 0 130 130" fill="none" xmlns="http://www.w3.org/2000/svg">
<path fill-rule="evenodd" clip-rule="evenodd" d="M65 0C76.6335 0 87.5532 3.05622 97 8.40956V17V22.7471V61.6879C97 68.8003 95.6804 74.8422 93.0412 79.8136C90.4021 84.785 86.6816 88.5589 81.8797 91.1354C77.0779 93.7118 71.4147 95 64.89 95C58.732 95 53.252 93.8932 48.4502 91.6797C43.6483 89.4298 39.8729 86.2365 37.1237 82.0997C34.3746 77.9629 33 73.0459 33 67.3488H46.4158C46.4158 70.5058 47.2039 73.2636 48.7801 75.6224C50.3929 77.9448 52.5922 79.7592 55.378 81.0655C58.1638 82.3719 61.3345 83.0251 64.89 83.0251C68.8121 83.0251 72.1478 82.2086 74.8969 80.5756C77.646 78.9427 79.7354 76.5477 81.1649 73.3907C82.6312 70.1973 83.3643 66.2964 83.3643 61.6879V15.2679C77.6425 13.1544 71.4561 12 65 12C35.7289 12 12 35.7289 12 65C12 94.2711 35.7289 118 65 118C94.2711 118 118 94.2711 118 65C118 54.7149 115.07 45.1141 110 36.9864V18.0957C122.327 29.925 130 46.5664 130 65C130 100.899 100.899 130 65 130C29.1015 130 0 100.899 0 65C0 29.1015 29.1015 0 65 0Z" fill="white"/>
</svg>
