<svg width="242" height="152" viewBox="0 0 242 152" fill="none" xmlns="http://www.w3.org/2000/svg">
<path d="M89 16C89 24.8366 81.8366 32 73 32C64.1634 32 57 24.8366 57 16C57 7.16344 64.1634 0 73 0C81.8366 0 89 7.16344 89 16Z" fill="white"/>
<path d="M89 136C89 144.837 81.8366 152 73 152C64.1634 152 57 144.837 57 136C57 127.163 64.1634 120 73 120C81.8366 120 89 127.163 89 136Z" fill="white"/>
<path d="M32 104C32 112.837 24.8366 120 16 120C7.16344 120 0 112.837 0 104C0 95.1634 7.16344 88 16 88C24.8366 88 32 95.1634 32 104Z" fill="white"/>
<path fill-rule="evenodd" clip-rule="evenodd" d="M80 16C80 19.866 76.866 23 73 23C69.134 23 66 19.866 66 16C66 12.134 69.134 9 73 9C76.866 9 80 12.134 80 16ZM78 31.2032C84.3879 29.1037 89 23.0904 89 16C89 7.16344 81.8366 0 73 0C64.1634 0 57 7.16344 57 16C57 23.4554 62.0991 29.7198 69 31.4959V120.504C62.2771 122.234 57.2642 128.225 57.0101 135.426C43.7342 134.63 32.1607 127.518 25.255 117.053C29.3368 114.154 32 109.388 32 104C32 95.1634 24.8366 88 16 88C7.16344 88 0 95.1634 0 104C0 112.837 7.16344 120 16 120C16.1599 120 16.3193 119.998 16.4781 119.993C25.1821 134.65 41.1634 144.479 59.442 144.5C62.2726 149.005 67.2866 152 73 152C81.8366 152 89 144.837 89 136C89 128.91 84.3879 122.896 78 120.797L78 31.2032ZM73 143C76.866 143 80 139.866 80 136C80 132.134 76.866 129 73 129C69.134 129 66 132.134 66 136C66 139.866 69.134 143 73 143ZM23 104C23 107.866 19.866 111 16 111C12.134 111 9 107.866 9 104C9 100.134 12.134 97 16 97C19.866 97 23 100.134 23 104Z" fill="#181818"/>
<path d="M132 26C132 34.8366 124.837 42 116 42C107.163 42 100 34.8366 100 26C100 17.1634 107.163 10 116 10C124.837 10 132 17.1634 132 26Z" fill="white"/>
<path d="M242 136C242 144.837 234.837 152 226 152C217.163 152 210 144.837 210 136C210 127.163 217.163 120 226 120C234.837 120 242 127.163 242 136Z" fill="white"/>
<path fill-rule="evenodd" clip-rule="evenodd" d="M116 33C119.866 33 123 29.866 123 26C123 22.134 119.866 19 116 19C112.134 19 109 22.134 109 26C109 29.866 112.134 33 116 33ZM116 10C123.455 10 129.72 15.0991 131.496 22H211C222.046 22 231 30.9543 231 42V120.797C237.388 122.896 242 128.91 242 136C242 144.837 234.837 152 226 152C219.285 152 213.537 147.864 211.163 142H131C119.954 142 111 133.046 111 122V41.2032C104.612 39.1037 100 33.0904 100 26C100 17.1634 107.163 10 116 10ZM222 120.504C216.048 122.036 211.437 126.906 210.281 133H131C124.925 133 120 128.075 120 122V41.4959C125.285 40.1358 129.513 36.1435 131.203 31H211C217.075 31 222 35.9249 222 42V120.504ZM233 136C233 139.866 229.866 143 226 143C222.134 143 219 139.866 219 136C219 132.134 222.134 129 226 129C229.866 129 233 132.134 233 136Z" fill="#181818"/>
</svg>
